<svg width="84" height="71" viewBox="0 0 84 71" fill="none" xmlns="http://www.w3.org/2000/svg">
<path d="M2 50.9127C3.6924 -14.2839 78.1792 -14.3246 82 50.9127C78 -2.08736 3.5 -1.08735 2 50.9127Z" stroke="white" stroke-width="3"/>
<circle cx="10.0444" cy="52.9727" r="10.0444" fill="white"/>
<circle cx="10.0445" cy="52.9728" r="7.81231" fill="#232323"/>
<path d="M24.0001 52.4147C24.0001 62.5849 23.654 70.8295 18.4148 70.8295C13.1757 70.8295 8.92847 62.5849 8.92847 52.4147C8.92847 42.2446 13.1757 34 18.4148 34C23.654 34 24.0001 42.2446 24.0001 52.4147Z" fill="white"/>
<path d="M22.3208 52.4147C22.3208 61.3522 22.0646 68.5974 18.185 68.5974C14.3054 68.5974 11.1604 61.3522 11.1604 52.4147C11.1604 43.4773 14.3054 36.2321 18.185 36.2321C22.0646 36.2321 22.3208 43.4773 22.3208 52.4147Z" fill="#232323"/>
<circle r="10.0444" transform="matrix(-1 0 0 1 73.9556 51.9727)" fill="white"/>
<circle r="7.81231" transform="matrix(-1 0 0 1 73.9558 51.9728)" fill="#232323"/>
<path d="M60.0001 51.4147C60.0001 61.5849 60.3462 69.8295 65.5854 69.8295C70.8246 69.8295 75.0718 61.5849 75.0718 51.4147C75.0718 41.2446 70.8246 33 65.5854 33C60.3462 33 60.0001 41.2446 60.0001 51.4147Z" fill="white"/>
<path d="M61.6792 51.4147C61.6792 60.3522 61.9354 67.5974 65.815 67.5974C69.6946 67.5974 72.8396 60.3522 72.8396 51.4147C72.8396 42.4773 69.6946 35.2321 65.815 35.2321C61.9354 35.2321 61.6792 42.4773 61.6792 51.4147Z" fill="#232323"/>
</svg>
